<?xml version="1.0" encoding="UTF-8"?>
<svg width="59px" height="30px" viewBox="0 0 59 30" version="1.1" xmlns="http://www.w3.org/2000/svg" xmlns:xlink="http://www.w3.org/1999/xlink">
    <title>1B4050CB-62D1-46E5-8F1A-220D8159BD1A</title>
    <g id="Impact-Counter" stroke="none" stroke-width="1" fill="none" fill-rule="evenodd">
        <g id="3R-Object" transform="translate(-1133.000000, -567.000000)" fill="#9AB7DB">
            <path d="M1174.77487,585.507692 C1175.79605,585.507692 1176.28825,585.031339 1176.76793,584.194872 C1177.31725,583.237607 1178.18036,582 1178.18036,582 L1186,582 C1185.19714,586.177778 1184.44358,590.047863 1183.68298,594 L1141.2818,594 C1140.5212,590.047863 1139.77469,586.177778 1139,582.136752 L1147.09195,582.136752 C1147.45113,582.813675 1147.8596,583.497436 1148.18277,584.215385 C1148.58499,585.090598 1149.18987,585.507692 1150.21105,585.507692 C1154.30671,585.497816 1158.40003,585.492498 1162.49335,585.492498 C1166.58667,585.492498 1170.67999,585.497816 1174.77487,585.507692 M1143.41989,580.252985 C1139.80855,580.252985 1135,580.142925 1135,580.142925 L1135,577.104268 L1190,577 L1190,580.149545 C1190,580.149545 1184.91796,580.25133 1181.22781,580.25133 C1180.22133,580.25133 1179.31968,580.243882 1178.65132,580.224022 C1178.58196,580.222367 1178.51418,580.221539 1178.44797,580.221539 C1177.13412,580.221539 1176.24507,580.653505 1175.79267,582.063601 C1175.58696,582.696654 1175.20392,583.262679 1174.82797,584 L1150.22878,584 C1149.90958,583.396737 1149.50525,582.845608 1149.30742,582.220002 C1148.81955,580.684123 1147.87219,580.211609 1146.45429,580.211609 C1146.36681,580.211609 1146.27696,580.213264 1146.18632,580.216574 C1145.48013,580.243055 1144.5036,580.252985 1143.41989,580.252985 M1158.27537,575 C1149.17274,575 1141.08584,574.91774 1140,574.735372 C1140.56784,573.14993 1141.12167,571.606395 1141.69652,570 L1184.32451,570 C1184.89936,571.564489 1185.44618,573.073103 1186,574.581717 C1185.23664,574.844017 1170.79675,575 1158.27537,575 M1141.8986,567 C1139.63351,567.007051 1138.88315,569.108163 1138.88315,569.108163 C1138.88315,569.108163 1137.55776,572.584165 1136.85649,574.403249 C1136.40768,574.403249 1135.99627,574.401682 1135.602,574.401682 C1135.20852,574.401682 1134.83373,574.403249 1134.45816,574.410299 C1133.45613,574.41735 1132.98628,574.925001 1133.0003,575.947355 C1133.02056,577.526714 1133.02056,579.105291 1133.0003,580.691701 C1132.99251,581.728939 1133.52625,582.186452 1134.50024,582.214655 C1134.79555,582.224056 1135.09242,582.226406 1135.40097,582.226406 C1135.81005,582.226406 1136.24016,582.221706 1136.71624,582.221706 C1136.89857,583.060741 1137.03882,583.617747 1137.14401,584.188855 C1137.81021,587.756515 1138.44837,591.324176 1139.12158,594.891837 C1139.48624,596.794746 1139.71766,596.963963 1141.68121,597 L1182.59777,597 C1183.06061,597 1183.53045,596.992166 1183.99329,596.985115 C1184.92597,596.963963 1185.5501,596.569123 1185.70438,595.582023 C1185.76749,595.173082 1185.8797,594.778242 1185.95684,594.377135 C1186.63005,590.753068 1187.28924,587.129002 1187.97648,583.504935 C1188.04661,583.117146 1188.2079,582.743459 1188.36919,582.22954 C1188.78294,582.22954 1189.18422,582.239724 1189.57615,582.239724 C1189.82159,582.239724 1190.06392,582.235807 1190.30469,582.221706 C1191.63709,582.137097 1191.93864,581.848018 1191.9737,580.515433 C1192.00877,579.056719 1192.00877,577.590171 1191.9737,576.123622 C1191.94565,574.734632 1191.6932,574.480806 1190.34676,574.410299 C1190.07015,574.394631 1189.79432,574.389147 1189.51615,574.389147 C1189.05254,574.389147 1188.58503,574.403249 1188.10271,574.403249 C1187.38041,572.499556 1186.7142,570.814436 1186.09709,569.115214 C1185.33271,567.021152 1183.08866,567 1183.08866,567 L1141.8986,567 Z" id="Fill-1-Copy"></path>
        </g>
    </g>
</svg>