<?xml version="1.0" encoding="UTF-8"?>
<svg width="22px" height="68px" viewBox="0 0 22 68" version="1.1" xmlns="http://www.w3.org/2000/svg" xmlns:xlink="http://www.w3.org/1999/xlink">
    <title>1708B279-905F-42FE-8318-7297DED7C1EE</title>
    <g id="Impact-Counter" stroke="none" stroke-width="1" fill="none" fill-rule="evenodd">
        <g id="3R-Object" transform="translate(-1041.000000, -548.000000)" fill="#9AB7DB">
            <g id="Group-7-Copy" transform="translate(1041.000000, 548.000000)">
                <path d="M11.7105173,6.86930917 C10.0032998,6.86930917 8.29608243,6.8684535 6.58886502,6.8684535 C5.62305294,6.86759784 5.56522505,6.81112369 5.56177264,5.86646533 C5.55745713,4.95175538 5.58248711,4.03618976 5.55832023,3.12233547 C5.54537369,2.64230527 5.73611941,2.37191393 6.20133184,2.28292437 C6.56728745,2.2136152 6.93237995,2.12462564 7.30265106,2.08954322 C8.45748266,1.97830628 9.61145115,1.92867749 10.7654196,1.92867749 C12.0764729,1.92867749 13.386663,1.99285265 14.6968531,2.1066566 C16.4118384,2.2546873 16.4109753,2.26409966 16.4109753,3.94805587 C16.4109753,4.43493142 16.4040705,5.89641374 16.4109753,6.33023783 C16.4187432,6.87273185 16.3117185,6.83679376 15.8974291,6.85048446 C15.6350459,6.85818548 15.4020081,6.8684535 15.0075701,6.8684535 C13.9079771,6.86930917 12.8092472,6.86930917 11.7105173,6.86930917 M10.6117873,0 C8.73108626,0 6.85383759,0.148030703 4.98435684,0.533081666 C4.08672989,0.718761797 3.83815627,0.940380018 3.83470386,1.86107965 C3.82607283,3.69135523 3.8467873,5.5216308 3.82348353,7.35105071 C3.8148525,7.99280232 3.9693479,8.46427583 4.65983017,8.63883226 C4.76167631,8.66450233 4.84108177,8.78258462 4.98176753,8.89981125 C4.29214837,9.53642884 3.64050572,10.0729332 3.06654234,10.6821694 C1.66313712,12.1710331 0.591163398,13.8601233 0.392649745,15.9376872 C0.251963983,17.4102932 0.207945738,18.8965899 0.19931471,20.3768969 C0.121635454,33.9537939 0.0569027416,47.5298352 0.000801057109,61.1058764 C-0.00696686843,62.9104819 0.0430930962,64.7159431 0.0931530607,66.5205486 C0.114730632,67.2949289 0.457382458,67.7373097 1.21950226,67.8716497 C1.70888157,67.9589279 6.22204631,68 10.7964914,68 C15.56945,68 20.4097308,67.9555052 20.8197046,67.8725053 C21.5075976,67.7330313 21.9184345,67.2008053 21.9762624,66.5025796 C21.9987031,66.2313326 22.0012924,65.9583742 21.9995662,65.6871272 C21.9046249,49.4157292 21.8079574,33.1443312 21.7138791,16.8737889 C21.7078374,15.7956462 21.4782521,14.7731219 21.0441113,13.7848245 C20.3009798,12.0940229 19.1452851,10.7275198 17.7453323,9.54241852 C17.5261042,9.35673839 17.3206857,9.15651189 17.0393142,8.89895558 C17.2852985,8.73637851 17.4294367,8.60631685 17.5994679,8.53529634 C18.0465552,8.34619353 18.2373009,8.02531773 18.2347116,7.54871021 C18.2269437,5.59436265 18.2398902,3.64087077 18.2278068,1.68737889 C18.2234913,1.07300868 17.9248577,0.711916446 17.3224119,0.598968164 C16.4903808,0.44409211 15.6548972,0.284937712 14.8125089,0.208783189 C13.4108298,0.0821442054 12.0100139,0 10.6117873,0 M13.8078572,9.43545992 L15.2828999,10.7848496 L15.5245687,11.0081792 C15.7179037,11.1887253 15.887935,11.3453127 16.064008,11.4950547 C17.2956557,12.5364037 18.1484013,13.6213917 18.6705785,14.8099157 C18.9718014,15.4961621 19.1202551,16.1755631 19.1245706,16.8883352 L19.2807922,43.5218825 L19.4085315,65.3688184 C17.8359581,65.4039008 14.746913,65.4329936 10.7964914,65.4329936 C6.93583236,65.4329936 4.12211711,65.4056122 2.65225297,65.3713854 C2.61513955,63.9586762 2.58406785,62.5220083 2.59010957,61.1170001 C2.64966367,46.6228262 2.71439638,33.3017743 2.78862322,20.3914433 C2.79811735,18.7143325 2.85594524,17.3760664 2.97073792,16.1798414 C3.08898301,14.938266 3.72077429,13.7480307 4.95846376,12.4337234 C5.27263319,12.1008683 5.640315,11.7731471 6.0658247,11.3932301 C6.28764213,11.194715 6.51463817,10.9919215 6.74681284,10.7780043 L8.20027801,9.43631559 L9.14882803,9.43631559 L11.7105173,9.43631559 L13.8078572,9.43545992" id="Fill-1"></path>
                <path d="M5.01162402,39.3637955 C5.01162402,32.4520028 5.02973422,25.5410675 5.00009934,18.6292748 C4.99186743,16.7140001 5.49483709,15.0233458 6.6547131,13.5513105 C7.2260076,12.8251522 7.82199782,12.1187125 8.43774463,11.433706 C8.8937924,10.9278814 9.46179414,10.8738696 9.82399814,11.2228028 C10.0882424,11.4782871 10.073425,12.2378813 9.65277443,12.6965527 C8.88638368,13.5350213 8.16279886,14.4292162 7.52070994,15.3731363 C6.9354212,16.2330381 6.73044666,17.2395432 6.73126985,18.3214934 C6.74773367,32.3671272 6.74279452,43.1403332 6.74197133,57.185967 C6.74197133,57.508323 6.75349601,57.8315363 6.7271539,58.1513203 C6.68928711,58.6125638 6.37482818,58.964069 5.96981825,58.9966475 C5.53105749,59.031798 5.22400727,58.7883164 5.11123012,58.3707968 C5.02314869,58.0450114 5.01573997,57.6883622 5.01573997,57.3462877 C5.01080083,50.2613144 5.01162402,46.4487688 5.01162402,39.3637955" id="Fill-3"></path>
                <path d="M16.147056,63.8128554 C15.4649825,63.6992565 14.7845586,63.5728159 14.1008356,63.4740342 C11.3708922,63.0808831 9.86076343,63.0789075 7.13246956,63.4779855 C6.45534464,63.5767672 5.78894154,63.7901356 5.12006418,63.9669548 C4.68294333,64.0815416 4.28706031,63.8978077 4.09901587,63.4206921 C3.91097143,62.9435766 3.9851995,62.4358387 4.36953594,62.2313606 C4.98727841,61.9014298 5.64708346,61.5774259 6.31018753,61.4974127 C9.34941452,60.7575379 10.8339759,60.9531257 13.7107259,61.3739356 C14.6039369,61.5043274 15.4946738,61.6742319 16.3763383,61.8876004 C16.7961392,61.9893455 17.0476899,62.5326448 16.9924312,62.9890162 C16.9338735,63.4671195 16.5553104,63.8533559 16.147056,63.8128554" id="Fill-5"></path>
            </g>
        </g>
    </g>
</svg>