<?xml version="1.0" encoding="UTF-8"?>
<svg width="42px" height="64px" viewBox="0 0 42 64" version="1.1" xmlns="http://www.w3.org/2000/svg" xmlns:xlink="http://www.w3.org/1999/xlink">
    <title>3358D4A5-54F6-48F5-B4F3-E2BC38B6A9ED</title>
    <g id="Impact-Counter" stroke="none" stroke-width="1" fill="none" fill-rule="evenodd">
        <g id="3R-Object" transform="translate(-1251.000000, -550.000000)" fill="#9AB7DB">
            <g id="Group-7-Copy-2" transform="translate(1251.000000, 550.000000)">
                <path d="M36.9298255,0 C35.9592377,0 34.9886499,0.00493909733 34.0180621,0.0156404749 C32.0322524,0.0362200471 31.9397382,0.111952873 31.9291884,2.08594544 C31.905654,6.18374986 31.9218846,10.2807311 31.91945,14.3785355 C31.9186385,16.154141 31.9291884,17.9297465 31.9024079,19.7045288 C31.8910465,20.4577411 31.8772506,21.2414112 30.8620287,21.4118101 C30.6648273,21.4447374 30.4846681,21.4628474 30.3191163,21.4628474 C29.5303108,21.4628474 29.0709858,21.0677197 28.7293324,20.0930711 C28.5491732,19.579405 28.3949828,19.0500984 28.2935418,18.5158527 C28.1263669,17.6317543 27.6175387,17.2423888 26.7492035,17.2423888 L26.7427113,17.2423888 C24.4996472,17.2465047 22.2573946,17.2489742 20.015142,17.2489742 C18.4131852,17.2489742 16.8104169,17.2473279 15.2076486,17.2456815 L15.2044025,17.2456815 C14.3157791,17.2456815 13.868627,17.6992553 13.6868447,18.5594814 C13.5464503,19.22379 13.3135417,19.8691654 13.1001097,20.5161871 C12.8493475,21.2759849 12.3275348,21.4332129 11.7481037,21.4332129 C11.5322372,21.4332129 11.3090669,21.4109869 11.0883312,21.3904073 C10.307641,21.3171441 10.1502045,20.7079887 10.1128742,20.0626133 C10.077167,19.4493421 10.0796016,18.8344245 10.0796016,18.2195069 C10.0763555,12.8251894 10.0901514,7.43004875 10.0682402,2.03573128 C10.0601249,0.152288834 9.94001872,0.0460982417 8.1303107,0.0172868406 C7.40723903,0.00576228022 6.68335582,0.00246954866 5.96028415,0.00246954866 C4.92964326,0.00246954866 3.89900237,0.00905501177 2.86917302,0.00905501177 L2.85294245,0.00905501177 C2.64113358,0.00905501177 2.44474374,0.00905501177 2.26214988,0.00905501177 C-0.160261967,0.00905501177 0.00285521301,0.107013775 0.00204368475,2.91242106 C0,22.3057867 0.0012321565,41.6999756 0.0012321565,61.0941644 C0.0012321565,61.5716105 0.0288241172,62.0507029 0.00934743906,62.5273258 C-0.0328520303,63.5653594 0.491395224,63.9884754 1.43601411,63.9884754 C1.45630232,63.9884754 1.475779,63.9884754 1.49606721,63.9876523 C1.54881654,63.9868291 1.60156588,63.9860059 1.65350369,63.9860059 C1.93835011,63.9860059 2.22319652,63.9983536 2.50804294,63.9983536 C8.99296524,63.9983536 15.475453,64 21.9603753,64 C27.8204208,64 33.6820894,63.9983536 39.5421349,63.9950609 C41.9799658,63.9942377 41.9929503,63.9744813 41.9945733,61.4514258 C42,51.6860072 41.9970079,41.9205886 41.9970079,32.15517 C41.9970079,26.2142591 41.9970079,20.2733482 41.9970079,14.3324373 C41.9970079,10.302957 42.0059347,6.27429997 41.9929503,2.24481974 C41.9856465,0.0543300706 41.9613007,0.0337504984 39.8870344,0.0139941091 C38.9010276,0.00493909733 37.9158323,0 36.9298255,0 M36.9298255,2.46954866 C37.806276,2.46954866 38.6827265,2.47366458 39.559177,2.48107322 C39.5672923,5.24943728 39.5653714,8.01862451 39.5640462,10.7869886 L39.5624231,14.3324373 L39.5624231,32.15517 L39.5624231,40.378767 C39.5632347,47.4021634 39.5640462,54.4255598 39.5599886,61.4497794 L39.5599886,61.5255122 L39.5405119,61.5255122 C33.6812779,61.528805 27.8196093,61.5304513 21.9603753,61.5304513 L11.2814749,61.5296282 L2.509666,61.528805 C2.48694321,61.528805 2.46422042,61.528805 2.44230915,61.528805 C2.43906304,61.3839248 2.43581693,61.2390446 2.43581693,61.0941644 L2.43581693,53.1677364 C2.43528387,36.4159646 2.43528387,19.6641928 2.43662845,2.91242106 L2.43581693,2.47860368 L2.53157726,2.47860368 L2.86917302,2.47860368 C3.37800123,2.47860368 3.88764098,2.47695731 4.39646919,2.47531094 C4.91747034,2.47366458 5.439283,2.47201821 5.96028415,2.47201821 C6.51861559,2.47201821 7.07694703,2.47366458 7.63527847,2.48025004 C7.64826292,5.98865551 7.64663986,9.49788416 7.64501681,13.0062896 C7.64501681,14.7448519 7.64420528,16.482591 7.64501681,18.2211532 L7.64501681,18.346277 C7.64501681,18.9455542 7.64501681,19.5645877 7.68234711,20.2074935 C7.82679914,22.6869204 9.42064063,23.7142526 10.8919414,23.8525474 C11.1435151,23.8755965 11.4291731,23.9027615 11.7481037,23.9027615 C14.2776372,23.9027615 15.1508417,22.081881 15.4089076,21.2998572 L15.5127833,20.9870477 C15.6426278,20.5993286 15.7846452,20.1762126 15.9104321,19.7160534 C17.2786687,19.7176997 18.6469054,19.7185229 20.015142,19.7185229 C22.0285436,19.7185229 24.0411337,19.7168765 26.0667082,19.7135838 C26.1657147,20.1004798 26.2882554,20.4997235 26.4351421,20.9203699 C27.3083465,23.409675 29.0287864,23.9323961 30.3191163,23.9323961 C30.6169472,23.9323961 30.9245164,23.9044079 31.258866,23.8484315 C32.6384641,23.6171171 34.2915471,22.716555 34.3361812,19.7423952 C34.3572809,18.3610943 34.3564694,16.9657993 34.3548463,15.6166026 L34.3540348,14.3793587 C34.3548463,13.0836688 34.3532233,11.787979 34.3524117,10.4922891 C34.3499771,7.8655125 34.3475426,5.15312488 34.3613385,2.48107322 C35.2175009,2.47366458 36.0736632,2.46954866 36.9298255,2.46954866" id="Fill-1"></path>
                <path d="M28,58.8241164 L28,59.3297297 C28,59.6997921 28.2744088,60 28.6126689,60 L36.167652,59.9692308 C36.6282939,59.9675676 37,59.5592516 37,59.0561331 L37,28.5081081 C37,28.227027 36.791723,28 36.5355574,28 L35.7777027,28 C35.520777,28 35.3125,28.227027 35.3125,28.5081081 L35.3125,58.1538462 L28.6126689,58.1538462 C28.2744088,58.1538462 28,58.4540541 28,58.8241164" id="Fill-3"></path>
                <path d="M16,57.8355294 L16,58.3362353 C16,58.7027059 15.713078,59 15.3593931,59 L5.87030347,58.9695294 C5.38865607,58.9678824 5,58.5635294 5,58.0652941 L5,38.5031765 C5,38.2256471 5.21777457,38 5.48562139,38 L6.27803468,38 C6.5466763,38 6.76445087,38.2256471 6.76445087,38.5031765 L6.76445087,57.1717647 L15.3593931,57.1717647 C15.713078,57.1717647 16,57.4690588 16,57.8355294" id="Fill-5"></path>
            </g>
        </g>
    </g>
</svg>